<svg xmlns="http://www.w3.org/2000/svg" width="2100" height="600" viewBox="0 0 2100 600">
  <defs>
    <style>
      .cls-1 {
        fill: #131313;
        stroke: rgba(19, 19, 19, 0.1);
        stroke-width: 50;
        stroke-linecap: round;
      }
    </style>
  </defs>
  <path id="Color_Fill_1" data-name="Color Fill 1" class="cls-1" d="M-6,606L48,441,267,231,327,69l96,72-27,99,48,90,30,111,60,33,3-168L684,162V306l36,36,33-84,24-84,72,84,27,141,60,75-3-87,12-81,60-12,33-57,87-15,60,45,111-141,117,45-42,99,39,72,24,132,81-27,54-150,102,69-48,90,33,66,117-123,99,45,117-123s45,135,60,156,51,123,51,123L2480.83,81.546C2536.61-144.672,148.165-322.892,144-306L-132,27Z"/>
</svg>
